<svg id="Grupo_20" data-name="Grupo 20" xmlns="http://www.w3.org/2000/svg" xmlns:xlink="http://www.w3.org/1999/xlink" width="159.147" height="162.61" viewBox="0 0 159.147 162.61">
  <defs>
    <clipPath id="clip-path">
      <rect id="Retângulo_9" data-name="Retângulo 9" width="159.147" height="162.61" fill="none"/>
    </clipPath>
  </defs>
  <path id="Caminho_8" data-name="Caminho 8" d="M113.74,126.7h11.872l15.075,37.1,14.606-37.1h11.716l5.077,55.847H158.73l-4.14-45.3h-.078l-17.183,44.443H133.58l-17.574-43.036-3.984,43.9h-3.281Z" transform="translate(-61.641 -71.82)" fill="#eae4c7"/>
  <g id="Grupo_14" data-name="Grupo 14">
    <g id="Grupo_13" data-name="Grupo 13" clip-path="url(#clip-path)">
      <path id="Caminho_9" data-name="Caminho 9" d="M16.067,140.936c-.4,1.742-.848,3.807-1.136,5.2l-.682,3.292c-1.275-.382-3.742-.972-6.131-1.467l-.9-.187c-2.445-.507-4.924-.943-6.264-1.1.3-1.369.544-2.437.8-3.66.359-1.73.735-3.732.885-4.643l1.924.654a3.669,3.669,0,0,1-.088.806,19.9,19.9,0,0,0-.981,3.405c-.094.451-.172.926-.247,1.381,1.117.291,2.482.613,3.855.9.387-1.96.651-3.612.72-4.323l1.97.624c-.231.737-.607,2.267-1.015,4.047,1.5.312,3.017.587,4.229.8.136-.561.279-1.159.4-1.742a24.349,24.349,0,0,0,.543-3.85,5.332,5.332,0,0,1,.221-.779Z" transform="translate(-0.539 -78.434)" fill="#eae4c7"/>
      <path id="Caminho_10" data-name="Caminho 10" d="M24.706,117.714a7.564,7.564,0,0,1-2.794,3.453l-1.746-1.633a6.08,6.08,0,0,0,2.939-2.938,1.769,1.769,0,0,0-.892-2.572c-.855-.343-1.552-.105-2.508.835l-1.5,1.51c-1.443,1.429-2.824,1.827-4.392,1.2a3.5,3.5,0,0,1-2.237-2.471,9.106,9.106,0,0,1,.032-3.175,8.712,8.712,0,0,1,2.336-3.242l1.722,1.539a3.094,3.094,0,0,1-.222.553l-2.192,1.955c-.022.054-.044.107-.057.143a1.7,1.7,0,0,0,.884,2.486c.82.33,1.541.081,2.545-.924l1.506-1.486c1.393-1.407,2.777-1.762,4.346-1.132a3.456,3.456,0,0,1,2.237,2.472,10.893,10.893,0,0,1-.011,3.431" transform="translate(-6.491 -61.604)" fill="#eae4c7"/>
      <path id="Caminho_11" data-name="Caminho 11" d="M32.9,88.323c-.246.389-.606.889-1.055,1.491,1.451.87,2.749,1.621,3.57,2.047l-1.364,2.161c-1.06-.8-3.164-2.222-5.228-3.523l-.78-.492c-2.112-1.333-4.282-2.61-5.449-3.209l.112-.178c.677-1.073,2.167-3.9,2.269-4.066a4.305,4.305,0,0,1,6.286-1.4A4.428,4.428,0,0,1,33.494,85a9.819,9.819,0,0,1-.6,3.326M30.269,83.3c-1.641-1.034-3.2-.766-4.149.745-.195.309-.531.914-.862,1.545,1.052.709,2.429,1.623,3.924,2.566l.78.491c.114.073.243.155.358.226.4-.564.792-1.113,1.007-1.454a2.757,2.757,0,0,0-1.059-4.12" transform="translate(-12.806 -45.548)" fill="#eae4c7"/>
      <path id="Caminho_12" data-name="Caminho 12" d="M53.344,68.082c.8,1.451,1.37,2.449,1.615,2.833l-1.54,1.663a8.7,8.7,0,0,1-.732-.679c-1-2.476-3.324-7.375-5.7-12.245l1.418-1.644c5.08,2.063,10.128,4.018,12.66,4.847a8.533,8.533,0,0,1,.732.677l-1.632,1.761c-.4-.215-1.453-.692-3-1.367-.407.382-.76.762-1.294,1.34-1.266,1.367-1.984,2.168-2.529,2.814m2.1-4.917c-1.756-.789-3.9-1.7-6.3-2.723,1.241,2.277,2.366,4.339,3.286,6,.275-.269.562-.58.9-.946.913-.986,1.591-1.746,2.113-2.336" transform="translate(-26.636 -32.883)" fill="#eae4c7"/>
      <path id="Caminho_13" data-name="Caminho 13" d="M84.769,48.092l-.994-.658C84.8,46.2,85.129,45.3,84.7,44.71a.629.629,0,0,0-.953-.142,1.7,1.7,0,0,0-.473.528,3.16,3.16,0,0,1-.84-.247l-.384-1.522c-2.928,1.489-6.019.611-8.126-2.322a7.1,7.1,0,0,1-1.209-6.653,12.613,12.613,0,0,1,2.256-3.443,9.191,9.191,0,0,1,3.839-1.5l.586,2.132a3.025,3.025,0,0,1-.483.348l-2.77.524a1.766,1.766,0,0,0-.276.175c-2.028,1.458-2.2,3.948-.318,6.568,1.939,2.7,4.433,3.273,6.773,1.592A7.175,7.175,0,0,0,84.6,37.948l1.414.947a8.932,8.932,0,0,1-2.776,3.674l.045.985a3.511,3.511,0,0,1,.465-.405,1.473,1.473,0,0,1,2.218.158c.8,1.107.33,3.026-1.2,4.786" transform="translate(-41.006 -16.668)" fill="#eae4c7"/>
      <path id="Caminho_14" data-name="Caminho 14" d="M110.9,27.48c-3.668,1.584-7.257.06-8.933-3.82a6.409,6.409,0,0,1,.309-6.307,12.729,12.729,0,0,1,3.019-3.041c3.668-1.584,7.257-.059,8.941,3.838a6.368,6.368,0,0,1-.335,6.3,12.5,12.5,0,0,1-3,3.033m-.5-1.835c2.24-.968,2.954-3.285,1.713-6.16-1.326-3.069-3.85-4.406-6.319-3.339-2.239.968-2.954,3.286-1.712,6.16,1.326,3.068,3.85,4.405,6.318,3.339" transform="translate(-57.419 -7.762)" fill="#eae4c7"/>
      <path id="Caminho_15" data-name="Caminho 15" d="M163.451,14.063c-1.465-3.437-3.035-7.023-4.229-9.745l-.044,3.619c-.027,2.234.036,5.021.148,6.322l-2.588.147c.116-1.334.229-4.092.255-6.325l.014-1.1c.029-2.214.013-4.849-.08-6.152l3.605-.2c.328,1.02,2.01,5.233,4.324,10.739,1.6-5.728,2.773-10.1,3-11.156L171.539,0c.057,1.325.338,3.906.616,6.1l.139,1.088c.277,2.178.686,4.963.953,6.276l-3.05.172c-.036-1.306-.29-4.081-.568-6.278l-.456-3.61c-.9,2.841-2.051,6.562-3.12,10.085Z" transform="translate(-88.847)" fill="#eae4c7"/>
      <path id="Caminho_16" data-name="Caminho 16" d="M209.162,17.848c-3.982-.849-6.061-4.179-5.179-8.312A6.362,6.362,0,0,1,207.922,4.6a12.617,12.617,0,0,1,4.3-.732c3.982.849,6.06,4.179,5.174,8.33a6.346,6.346,0,0,1-3.935,4.915,12.6,12.6,0,0,1-4.3.732m.716-2.067c2.16.461,3.873-.941,4.486-3.815.665-3.117-.473-5.52-2.857-6.029-2.161-.461-3.873.942-4.486,3.816-.665,3.118.472,5.52,2.857,6.029" transform="translate(-115.515 -2.188)" fill="#eae4c7"/>
      <path id="Caminho_17" data-name="Caminho 17" d="M245.409,30.481c-3.581-1.638-4.775-5.121-3.114-8.753a6.991,6.991,0,0,1,5.256-4.334,12.753,12.753,0,0,1,4.151.252,9.181,9.181,0,0,1,3.279,2.62l-1.751,1.8a5.309,5.309,0,0,1-.716-.327l-1.785-2.147-.157-.071c-2.043-.934-4.079.1-5.341,2.858-1.311,2.864-.648,5.11,1.814,6.237a7.075,7.075,0,0,0,3.45.585l-.155,2a9.136,9.136,0,0,1-4.932-.714" transform="translate(-136.929 -9.817)" fill="#eae4c7"/>
      <path id="Caminho_18" data-name="Caminho 18" d="M268.5,42.645c-1.2.885-2.02,1.521-2.363,1.794l-2.122-1.556c.03-.073.688-.972.749-1.022,2.642-1.493,7.16-4.279,11.277-6.906l2.168,1.494c-1.327,4.768-2.653,9.892-3.281,12.86-.03.073-.688.972-.749,1.023l-2.262-1.658c.156-.409.5-1.423.963-2.842-.442-.371-.86-.678-1.511-1.154-1.348-.988-2.18-1.574-2.869-2.032m5.037,1.12c.569-1.75,1.229-3.886,1.952-6.237-1.989,1.448-3.77,2.738-5.263,3.834l.991.727c.914.67,1.689,1.238,2.32,1.676" transform="translate(-149.66 -19.814)" fill="#eae4c7"/>
      <path id="Caminho_19" data-name="Caminho 19" d="M295.763,68.431c1.911-3.211,3.881-6.593,5.375-9.163l-2.949,2.1c-1.82,1.3-4.033,2.988-5.018,3.846l-1.645-2c1.146-.693,3.439-2.229,5.258-3.525l.9-.635c1.8-1.283,3.923-2.849,4.92-3.693l2.292,2.791c-.631.866-3.042,4.71-6.123,9.825,5.568-2.087,9.8-3.72,10.779-4.156l2.341,2.85c-1.037.827-2.955,2.576-4.565,4.1l-.8.754c-1.594,1.509-3.6,3.482-4.505,4.471l-1.939-2.36c1.034-.8,3.126-2.641,4.735-4.162l2.647-2.5c-2.822.951-6.508,2.213-9.985,3.428Z" transform="translate(-165.253 -31.38)" fill="#eae4c7"/>
      <path id="Caminho_20" data-name="Caminho 20" d="M321.091,107.266c-.418-.885-1.253-3.147-1.728-4.154l-.164-.348c1.248-.461,3.573-1.474,5.779-2.517l.833-.394c2.258-1.066,4.5-2.21,5.632-2.873l.164.347c.69,1.459,1.891,3.463,1.981,3.654,1.255,2.658.884,5.021-1.009,5.915a3.173,3.173,0,0,1-3.551-.68,3.14,3.14,0,0,1-1.593,4,3.739,3.739,0,0,1-3.984-.562,11.9,11.9,0,0,1-2.361-2.39m4.867.634c1.215-.575,1.434-1.867.638-3.552-.213-.452-.526-1.069-.805-1.616-1.321.623-2.59,1.266-3.632,1.8.26.684.561,1.412.749,1.812.723,1.529,1.852,2.121,3.051,1.555m4.969-3.2c1.181-.558,1.439-1.721.717-3.249-.131-.278-.354-.7-.593-1.121-1.059.457-2.343,1.021-3.594,1.612.2.477.483,1.069.713,1.554.608,1.286,1.629,1.738,2.757,1.205" transform="translate(-180.94 -54.974)" fill="#eae4c7"/>
      <path id="Caminho_21" data-name="Caminho 21" d="M333.729,141.275c-.9-3.972,1.249-7.257,5.371-8.194a6.365,6.365,0,0,1,6.133,1.5,12.635,12.635,0,0,1,2.471,3.6c.9,3.971-1.249,7.257-5.39,8.2a6.352,6.352,0,0,1-6.115-1.508,12.651,12.651,0,0,1-2.471-3.6m2.177-.218c.489,2.154,2.482,3.12,5.348,2.47,3.11-.706,4.814-2.748,4.274-5.127-.489-2.155-2.481-3.122-5.348-2.471-3.109.706-4.813,2.747-4.273,5.127" transform="translate(-189.061 -75.315)" fill="#eae4c7"/>
      <path id="Caminho_22" data-name="Caminho 22" d="M0,223.614c1.307-.246,3.769-.857,6.118-1.515l.888-.247c2.4-.674,4.807-1.426,6.07-1.9l.562,2.076c.173.69.355,1.338.525,1.947.482,1.72,1.047,3.6,1.354,4.547l-2.287.382a5.281,5.281,0,0,1-.351-.9,16.784,16.784,0,0,0-.58-3.069c-.14-.5-.308-1.031-.491-1.538-1.138.279-2.5.621-3.831.994.542,1.863,1.072,3.469,1.363,4.225l-2.406.454c-.138-.779-.5-2.371-.973-4.115-2.085.6-4.062,1.237-5.127,1.636Z" transform="translate(0 -124.681)" fill="#eae4c7"/>
      <path id="Caminho_23" data-name="Caminho 23" d="M13.413,259.177c-.73-1.632-1.618-3.549-2.227-4.833L9.607,251.01c1.247-.463,3.572-1.479,5.777-2.523l.833-.395c2.257-1.07,4.5-2.216,5.664-2.9l1.043,2.29.617,1.3c.789,1.666,1.7,3.49,2.158,4.376l-2.189.718a5.263,5.263,0,0,1-.5-.827,19.14,19.14,0,0,0-1.221-3.206c-.164-.347-.363-.721-.536-1.085-.988.426-2.116.917-3.262,1.46.857,1.72,1.6,3.154,1.966,3.746l-2.2.787c-.243-.693-.84-2.089-1.571-3.677-1.233.584-2.432,1.2-3.44,1.715.2.477.418.971.632,1.422a24.1,24.1,0,0,0,1.854,3.331,8.089,8.089,0,0,1,.35.919Z" transform="translate(-5.446 -138.99)" fill="#eae4c7"/>
      <path id="Caminho_24" data-name="Caminho 24" d="M27.282,282.692a8.381,8.381,0,0,1-1.519-4.432l2.682-.7a6.739,6.739,0,0,0,.9,4.163,1.512,1.512,0,0,0,2.261.563c.658-.467.789-1.078.532-2.238l-.476-2.065c-.48-2.038-.042-3.479,1.368-4.48a3.578,3.578,0,0,1,3.476-.511,9.368,9.368,0,0,1,2.723,1.814,9.559,9.559,0,0,1,1.6,3.908l-2.575.719a5.312,5.312,0,0,1-.456-.642l-.413-2.84-.078-.11a1.456,1.456,0,0,0-2.2-.538c-.626.444-.762,1.083-.492,2.328l.476,2.064c.473,2,.017,3.379-1.392,4.38a3.576,3.576,0,0,1-3.481.538,11.907,11.907,0,0,1-2.939-1.919" transform="translate(-14.604 -154.609)" fill="#eae4c7"/>
      <path id="Caminho_25" data-name="Caminho 25" d="M49.014,301.776c1.014-.863,2.852-2.611,4.567-4.347l.648-.657c1.067-1.079,2.12-2.171,2.958-3.1a24.267,24.267,0,0,0-2.471-2.064,5.212,5.212,0,0,1-.629-.729l1.675-1.586c.615.662,2.091,2.175,3.54,3.607l.725.716c1.5,1.486,2.978,2.889,3.647,3.5l-1.785,1.478a5.211,5.211,0,0,1-.751-.607,17.144,17.144,0,0,0-1.915-2.3c-.932.862-2.013,1.927-3.053,2.979l-.648.656c-1.755,1.776-3.471,3.62-4.307,4.63Z" transform="translate(-27.784 -163.988)" fill="#eae4c7"/>
      <path id="Caminho_26" data-name="Caminho 26" d="M69.22,322.051c-1.172.917-1.977,1.574-2.313,1.856l-2.162-1.5c.028-.075.662-.989.721-1.042,2.6-1.562,7.042-4.465,11.085-7.2l2.206,1.435c-1.2,4.8-2.388,9.955-2.936,12.938-.029.075-.663.99-.722,1.043l-2.3-1.6c.146-.413.458-1.436.888-2.866-.451-.36-.878-.655-1.541-1.114-1.373-.95-2.221-1.516-2.922-1.954m5.065.986c.522-1.764,1.124-3.916,1.785-6.285-1.949,1.5-3.693,2.836-5.158,3.971l1.011.7c.931.646,1.72,1.192,2.363,1.614" transform="translate(-36.702 -178.087)" fill="#eae4c7"/>
      <path id="Caminho_27" data-name="Caminho 27" d="M101.69,342.118a8.393,8.393,0,0,1-3.558-3.05l1.956-1.966a6.749,6.749,0,0,0,2.89,3.13,1.512,1.512,0,0,0,2.234-.661c.331-.736.134-1.329-.676-2.2l-1.457-1.538c-1.447-1.513-1.8-2.977-1.092-4.555a3.575,3.575,0,0,1,2.736-2.2,9.4,9.4,0,0,1,3.266.181,9.561,9.561,0,0,1,3.357,2.56l-1.854,1.925a5.271,5.271,0,0,1-.719-.322l-1.8-2.238-.123-.055a1.456,1.456,0,0,0-2.165.648c-.315.7-.108,1.321.756,2.255l1.457,1.539c1.42,1.479,1.729,2.9,1.021,4.479a3.571,3.571,0,0,1-2.728,2.229,11.921,11.921,0,0,1-3.506-.162" transform="translate(-55.627 -186.497)" fill="#eae4c7"/>
      <path id="Caminho_28" data-name="Caminho 28" d="M147.439,355.132c-2.963-.443-4.72-2.2-4.39-4.405.228-1.52,1.392-2.549,3.409-3.044a4.486,4.486,0,0,1-1.108-3.371,3.324,3.324,0,0,1,1.919-2.568,7.294,7.294,0,0,1,2.805-.706c2.374.356,3.731,1.937,3.426,3.969-.245,1.634-1.5,2.767-3.624,3.323.18.221.358.462.573.708.579.669,1.208,1.4,1.855,2.142a16.662,16.662,0,0,0,2.023-3.135l2.052.308a10.747,10.747,0,0,1-.162,1.083,36.822,36.822,0,0,1-2.719,3.108c.714.806,1.4,1.568,2.017,2.225.007.078-.143,1.086-.174,1.158l-2.421-.3c-.394-.486-.82-1.016-1.28-1.571a5.017,5.017,0,0,1-.61.317,11.889,11.889,0,0,1-3.592.763m3.116-2.388c-.773-.933-1.562-1.885-2.256-2.708-.328-.4-.644-.756-.9-1.106a2.193,2.193,0,0,0-1.628,1.8c-.2,1.329.66,2.333,2.218,2.566a3.811,3.811,0,0,0,2.568-.547m-1.627-5.6a2.522,2.522,0,0,0,2-2.07,1.707,1.707,0,0,0-1.365-2.167c-.874-.13-1.456.384-1.61,1.41a3.634,3.634,0,0,0,.975,2.827" transform="translate(-81.066 -193.317)" fill="#eae4c7"/>
      <path id="Caminho_29" data-name="Caminho 29" d="M205.96,354.643c-1.776.194-3.874.449-5.283.634l-3.657.479c-.057-1.329-.31-3.853-.628-6.272l-.119-.914c-.325-2.476-.728-4.961-1.017-6.279l2.5-.288,1.428-.187c1.828-.24,3.843-.543,4.828-.71l.011,2.3a5.279,5.279,0,0,1-.94.22,19.046,19.046,0,0,0-3.424.178c-.381.05-.8.123-1.2.176.1,1.071.224,2.3.388,3.552,1.9-.287,3.492-.554,4.168-.72l.073,2.335c-.733.018-2.245.158-3.981.366.177,1.352.39,2.68.576,3.8.517-.048,1.052-.1,1.548-.165a24.05,24.05,0,0,0,3.738-.742,7.8,7.8,0,0,1,.981-.051Z" transform="translate(-110.682 -193.358)" fill="#eae4c7"/>
      <path id="Caminho_30" data-name="Caminho 30" d="M229.04,346.842c-3.109-3.841-6.472-7.9-8.515-10.134-.043-.067-.4-1.123-.4-1.2l2.7-.9c.578.88,3.236,4.528,6.825,9.261-.091-5.9-.236-10.392-.322-11.436l2.532-.848c.043.066.4,1.124.4,1.2-.288,3.013-.586,8.3-.781,13.164Z" transform="translate(-124.778 -187.959)" fill="#eae4c7"/>
      <path id="Caminho_31" data-name="Caminho 31" d="M266.857,330.857c-1.584.827-3.444,1.83-4.69,2.515l-3.232,1.779c-.538-1.217-1.694-3.476-2.869-5.613l-.445-.808c-1.2-2.187-2.485-4.355-3.234-5.478l2.223-1.179,1.262-.694c1.615-.89,3.381-1.905,4.237-2.42l.85,2.141a5.23,5.23,0,0,1-.794.547,19.182,19.182,0,0,0-3.126,1.413c-.337.185-.7.406-1.052.6.486.961,1.045,2.057,1.656,3.167,1.664-.959,3.05-1.788,3.618-2.19l.92,2.148c-.677.285-2.034.966-3.575,1.792.658,1.194,1.34,2.354,1.92,3.328.463-.234.944-.476,1.382-.717a24.175,24.175,0,0,0,3.212-2.053,8.171,8.171,0,0,1,.895-.4Z" transform="translate(-143.067 -180.803)" fill="#eae4c7"/>
      <path id="Caminho_32" data-name="Caminho 32" d="M291.458,310.5c-.8-.353-4.656-1.693-10.79-3.793l2.284,2.695c1.6,1.89,3.3,3.774,4.23,4.7l-2.006,1.7c-.77-1.086-2.349-3.069-3.926-4.929l-.6-.7c-1.614-1.9-3.3-3.774-4.231-4.7l2.534-2.148c1.037.481,4.942,1.852,10.85,3.893l-2.371-2.8c-1.613-1.9-3.3-3.773-4.23-4.695l2.006-1.7c.769,1.085,2.349,3.069,3.925,4.929l.6.7c1.6,1.889,3.3,3.774,4.231,4.7Z" transform="translate(-156.693 -168.935)" fill="#eae4c7"/>
      <path id="Caminho_33" data-name="Caminho 33" d="M313.621,287.627c-.969-.911-2.913-2.542-4.829-4.053l-.723-.57c-1.192-.94-2.4-1.864-3.412-2.593a24.31,24.31,0,0,0-1.775,2.686,5.2,5.2,0,0,1-.654.706l-1.763-1.487c.59-.686,1.928-2.32,3.188-3.92l.63-.8c1.309-1.659,2.539-3.282,3.068-4.015l1.667,1.609a5.331,5.331,0,0,1-.519.813,17.163,17.163,0,0,0-2.07,2.16c.959.83,2.139,1.785,3.3,2.7l.724.57c1.961,1.547,3.985,3.044,5.082,3.762Z" transform="translate(-170.32 -155.082)" fill="#eae4c7"/>
      <path id="Caminho_34" data-name="Caminho 34" d="M336.491,259.013c-1.852,3.627-5.606,4.772-9.369,2.85a6.36,6.36,0,0,1-3.745-5.082,12.635,12.635,0,0,1,.406-4.343c1.852-3.626,5.607-4.771,9.387-2.841a6.351,6.351,0,0,1,3.728,5.074,12.6,12.6,0,0,1-.407,4.342m-1.811-1.226c1.005-1.967.094-3.985-2.522-5.321-2.84-1.451-5.455-.975-6.565,1.2-1,1.967-.094,3.985,2.523,5.322,2.84,1.45,5.455.974,6.564-1.2" transform="translate(-183.28 -140.96)" fill="#eae4c7"/>
      <path id="Caminho_35" data-name="Caminho 35" d="M349.467,227.3a8.4,8.4,0,0,1-2.491,3.968l-2.232-1.644a6.746,6.746,0,0,0,2.668-3.321c.3-1.072-.058-1.851-.983-2.112-.777-.217-1.335.065-2.074.994l-1.306,1.668c-1.283,1.655-2.678,2.219-4.342,1.753a3.577,3.577,0,0,1-2.583-2.381,9.394,9.394,0,0,1-.3-3.257,9.56,9.56,0,0,1,2.036-3.7l2.179,1.549a5.381,5.381,0,0,1-.214.758l-1.947,2.107c-.016.055-.026.092-.036.13-.3,1.053.055,1.79.962,2.045.74.208,1.321-.088,2.119-1.081l1.305-1.667c1.254-1.623,2.615-2.14,4.28-1.671a3.569,3.569,0,0,1,2.607,2.367,11.921,11.921,0,0,1,.356,3.492" transform="translate(-190.342 -124.293)" fill="#eae4c7"/>
    </g>
  </g>
</svg>
