<svg id="Grupo_15" data-name="Grupo 15" xmlns="http://www.w3.org/2000/svg" xmlns:xlink="http://www.w3.org/1999/xlink" width="216.7" height="221.416" viewBox="0 0 216.7 221.416">
  <defs>
    <clipPath id="clip-path">
      <rect id="Retângulo_9" data-name="Retângulo 9" width="216.7" height="221.416" fill="#fff"/>
    </clipPath>
  </defs>
  <path id="Caminho_8" data-name="Caminho 8" d="M115.548,126.7h16.166l20.526,50.518L172.128,126.7h15.952l6.913,76.043H176.807l-5.637-61.685h-.106l-23.4,60.515h-5.1l-23.929-58.6-5.425,59.77h-4.467Z" transform="translate(-44.607 -51.974)" fill="#fff"/>
  <g id="Grupo_14" data-name="Grupo 14">
    <g id="Grupo_13" data-name="Grupo 13" clip-path="url(#clip-path)">
      <path id="Caminho_9" data-name="Caminho 9" d="M21.533,141.865c-.545,2.372-1.154,5.184-1.547,7.078l-.929,4.483c-1.736-.52-5.1-1.323-8.348-2l-1.23-.254c-3.329-.691-6.705-1.284-8.529-1.5.413-1.864.741-3.319,1.086-4.984.488-2.356,1-5.082,1.2-6.322l2.619.891a5,5,0,0,1-.12,1.1A27.1,27.1,0,0,0,4.4,144.992c-.129.615-.235,1.261-.337,1.88,1.52.4,3.38.835,5.249,1.222.527-2.669.886-4.918.98-5.887l2.682.849c-.314,1-.827,3.088-1.382,5.51,2.048.425,4.108.8,5.759,1.088.185-.764.379-1.578.544-2.372a33.155,33.155,0,0,0,.739-5.243,7.26,7.26,0,0,1,.3-1.06Z" transform="translate(-0.39 -56.76)" fill="#fff"/>
      <path id="Caminho_10" data-name="Caminho 10" d="M29.5,120.982a10.3,10.3,0,0,1-3.8,4.7l-2.377-2.223a8.279,8.279,0,0,0,4-4c.653-1.625.218-2.928-1.214-3.5-1.165-.468-2.113-.143-3.415,1.137l-2.038,2.056c-1.965,1.945-3.845,2.488-5.98,1.63a4.772,4.772,0,0,1-3.046-3.364,12.4,12.4,0,0,1,.044-4.323,11.862,11.862,0,0,1,3.181-4.415l2.344,2.095a4.213,4.213,0,0,1-.3.753l-2.985,2.662c-.029.074-.06.146-.078.2-.643,1.6-.2,2.821,1.2,3.385,1.116.449,2.1.11,3.465-1.258l2.051-2.023c1.9-1.916,3.782-2.4,5.918-1.542a4.707,4.707,0,0,1,3.046,3.365,14.832,14.832,0,0,1-.015,4.671" transform="translate(-4.698 -44.581)" fill="#fff"/>
      <path id="Caminho_11" data-name="Caminho 11" d="M36.622,91.206c-.335.53-.825,1.21-1.436,2.031,1.975,1.185,3.743,2.207,4.862,2.787l-1.857,2.943c-1.443-1.1-4.308-3.026-7.118-4.8L30.011,93.5c-2.876-1.815-5.831-3.554-7.419-4.37l.153-.243c.922-1.461,2.95-5.315,3.089-5.537a5.862,5.862,0,0,1,8.559-1.9,6.029,6.029,0,0,1,3.043,5.227,13.371,13.371,0,0,1-.814,4.528m-3.577-6.833c-2.235-1.408-4.352-1.043-5.65,1.015-.265.421-.724,1.244-1.173,2.1,1.433.965,3.308,2.209,5.343,3.493l1.062.669c.155.1.331.211.488.308.546-.768,1.079-1.516,1.371-1.979,1.339-2.123.793-4.2-1.441-5.61" transform="translate(-9.268 -32.962)" fill="#fff"/>
      <path id="Caminho_12" data-name="Caminho 12" d="M55.642,71.724c1.092,1.976,1.865,3.334,2.2,3.857l-2.1,2.264a11.846,11.846,0,0,1-1-.925c-1.368-3.371-4.527-10.042-7.758-16.673l1.931-2.239c6.918,2.81,13.79,5.471,17.238,6.6a11.624,11.624,0,0,1,1,.922l-2.222,2.4c-.548-.293-1.979-.942-4.086-1.861-.554.52-1.034,1.038-1.762,1.825-1.724,1.861-2.7,2.952-3.444,3.831m2.853-6.7c-2.391-1.075-5.306-2.315-8.578-3.707,1.69,3.1,3.221,5.908,4.474,8.176.375-.366.765-.789,1.227-1.287,1.244-1.342,2.167-2.377,2.877-3.181" transform="translate(-19.276 -23.796)" fill="#fff"/>
      <path id="Caminho_13" data-name="Caminho 13" d="M89.263,54.851l-1.353-.9c1.4-1.682,1.843-2.9,1.263-3.71a.856.856,0,0,0-1.3-.193,2.315,2.315,0,0,0-.644.719,4.3,4.3,0,0,1-1.144-.337l-.523-2.073c-3.987,2.027-8.2.832-11.065-3.161-2.122-2.953-2.7-6.271-1.646-9.059a17.175,17.175,0,0,1,3.072-4.689A12.515,12.515,0,0,1,81.154,29.4l.8,2.9a4.119,4.119,0,0,1-.658.474l-3.772.714a2.4,2.4,0,0,0-.376.238c-2.761,1.985-3,5.376-.433,8.943,2.64,3.676,6.036,4.456,9.222,2.167a9.769,9.769,0,0,0,3.1-3.8l1.925,1.29a12.162,12.162,0,0,1-3.78,5l.062,1.341a4.782,4.782,0,0,1,.633-.552c1.126-.809,2.3-.784,3.02.215,1.083,1.507.449,4.12-1.63,6.517" transform="translate(-29.675 -12.062)" fill="#fff"/>
      <path id="Caminho_14" data-name="Caminho 14" d="M114.378,32.466c-4.995,2.157-9.881.081-12.164-5.2a8.727,8.727,0,0,1,.421-8.588,17.332,17.332,0,0,1,4.11-4.141c4.995-2.157,9.882-.081,12.174,5.226a8.671,8.671,0,0,1-.456,8.574,17.015,17.015,0,0,1-4.085,4.13m-.681-2.5c3.05-1.318,4.023-4.474,2.332-8.387-1.805-4.179-5.242-6-8.6-4.547-3.049,1.318-4.022,4.474-2.331,8.388,1.805,4.178,5.242,6,8.6,4.546" transform="translate(-41.553 -5.617)" fill="#fff"/>
      <path id="Caminho_15" data-name="Caminho 15" d="M165.879,19.149c-2-4.681-4.133-9.563-5.759-13.269l-.06,4.928c-.037,3.042.048,6.836.2,8.608l-3.525.2c.158-1.817.311-5.572.347-8.612L157.1,9.51c.039-3.014.018-6.6-.109-8.377L161.9.854c.447,1.389,2.737,7.126,5.888,14.623,2.176-7.8,3.775-13.758,4.087-15.191L176.892,0c.077,1.8.46,5.318.839,8.309l.19,1.482c.377,2.965.934,6.758,1.3,8.546l-4.153.235c-.049-1.778-.395-5.556-.774-8.548l-.62-4.916c-1.22,3.868-2.793,8.935-4.248,13.733Z" transform="translate(-64.296)" fill="#fff"/>
      <path id="Caminho_16" data-name="Caminho 16" d="M211.107,22.907c-5.422-1.156-8.252-5.691-7.052-11.317a8.662,8.662,0,0,1,5.364-6.718,17.179,17.179,0,0,1,5.855-1c5.422,1.156,8.251,5.691,7.046,11.342a8.641,8.641,0,0,1-5.358,6.692,17.156,17.156,0,0,1-5.855,1m.974-2.814c2.941.628,5.274-1.281,6.109-5.195.905-4.245-.643-7.517-3.891-8.21-2.942-.628-5.274,1.283-6.109,5.2-.905,4.246.643,7.517,3.891,8.209" transform="translate(-83.595 -1.583)" fill="#fff"/>
      <path id="Caminho_17" data-name="Caminho 17" d="M246.8,35.241c-4.876-2.231-6.5-6.972-4.24-11.919,1.535-3.353,4.105-5.455,7.156-5.9a17.365,17.365,0,0,1,5.652.343,12.5,12.5,0,0,1,4.465,3.567l-2.384,2.446a7.232,7.232,0,0,1-.975-.446l-2.431-2.924c-.071-.032-.142-.065-.214-.1-2.782-1.272-5.554.134-7.272,3.891-1.785,3.9-.882,6.958,2.471,8.492a9.633,9.633,0,0,0,4.7.8l-.211,2.722a12.44,12.44,0,0,1-6.716-.973" transform="translate(-99.091 -7.104)" fill="#fff"/>
      <path id="Caminho_18" data-name="Caminho 18" d="M270.124,45.426c-1.63,1.206-2.75,2.071-3.217,2.442l-2.889-2.119c.041-.1.937-1.323,1.02-1.392,3.6-2.032,9.75-5.826,15.355-9.4l2.952,2.034c-1.806,6.492-3.612,13.469-4.468,17.511-.041.1-.937,1.323-1.02,1.392l-3.08-2.257c.213-.557.675-1.937,1.312-3.87-.6-.505-1.171-.923-2.057-1.572-1.835-1.346-2.969-2.144-3.907-2.767m6.859,1.525c.775-2.383,1.674-5.292,2.658-8.493-2.708,1.971-5.133,3.729-7.166,5.221l1.35.99c1.245.912,2.3,1.686,3.159,2.282" transform="translate(-108.304 -14.339)" fill="#fff"/>
      <path id="Caminho_19" data-name="Caminho 19" d="M297.3,73.159c2.6-4.372,5.284-8.978,7.319-12.477L300.6,63.541c-2.478,1.763-5.492,4.069-6.833,5.237l-2.24-2.727c1.56-.944,4.682-3.034,7.16-4.8l1.219-.865c2.456-1.746,5.342-3.88,6.7-5.029l3.121,3.8c-.859,1.179-4.141,6.413-8.337,13.379,7.582-2.842,13.337-5.065,14.677-5.658l3.188,3.88c-1.411,1.126-4.024,3.508-6.216,5.579l-1.086,1.027c-2.171,2.055-4.906,4.741-6.134,6.088l-2.64-3.214c1.407-1.089,4.256-3.6,6.447-5.667l3.6-3.4c-3.843,1.3-8.861,3.013-13.6,4.668Z" transform="translate(-119.589 -22.709)" fill="#fff"/>
      <path id="Caminho_20" data-name="Caminho 20" d="M321.776,110.986c-.569-1.206-1.706-4.285-2.353-5.657l-.224-.474c1.7-.628,4.865-2.008,7.87-3.427l1.135-.536c3.074-1.452,6.128-3.01,7.669-3.912l.223.472c.939,1.986,2.574,4.715,2.7,4.975,1.709,3.619,1.2,6.836-1.374,8.054a4.321,4.321,0,0,1-4.835-.927c.684,2.425-.088,4.467-2.169,5.45a5.092,5.092,0,0,1-5.424-.765,16.2,16.2,0,0,1-3.216-3.254m6.627.863c1.654-.783,1.952-2.543.868-4.837-.29-.615-.717-1.455-1.1-2.2-1.8.849-3.527,1.723-4.946,2.452.354.931.764,1.923,1.02,2.468.984,2.082,2.521,2.888,4.154,2.117m6.766-4.354c1.608-.76,1.96-2.343.977-4.425-.179-.379-.482-.958-.808-1.526-1.441.622-3.191,1.391-4.894,2.195.278.65.658,1.455.971,2.116.828,1.752,2.218,2.367,3.755,1.641" transform="translate(-130.941 -39.783)" fill="#fff"/>
      <path id="Caminho_21" data-name="Caminho 21" d="M333.8,144.316c-1.228-5.409,1.7-9.882,7.313-11.157a8.667,8.667,0,0,1,8.351,2.048,17.2,17.2,0,0,1,3.365,4.9c1.227,5.407-1.7,9.882-7.339,11.161a8.649,8.649,0,0,1-8.326-2.053,17.225,17.225,0,0,1-3.364-4.9m2.964-.3c.666,2.934,3.379,4.248,7.281,3.364,4.235-.962,6.555-3.742,5.819-6.981-.666-2.935-3.379-4.251-7.282-3.364-4.233.961-6.554,3.741-5.819,6.981" transform="translate(-136.818 -54.503)" fill="#fff"/>
      <path id="Caminho_22" data-name="Caminho 22" d="M0,224.939c1.78-.335,5.132-1.167,8.331-2.063l1.209-.337c3.274-.918,6.545-1.942,8.265-2.587l.765,2.827c.236.939.484,1.821.715,2.652.656,2.342,1.426,4.9,1.843,6.192l-3.114.52a7.191,7.191,0,0,1-.478-1.224,22.855,22.855,0,0,0-.79-4.179c-.191-.679-.42-1.4-.668-2.094-1.549.38-3.4.845-5.216,1.353.738,2.537,1.459,4.724,1.856,5.753l-3.276.619c-.188-1.061-.687-3.229-1.325-5.6-2.839.823-5.53,1.684-6.981,2.227Z" transform="translate(0 -90.228)" fill="#fff"/>
      <path id="Caminho_23" data-name="Caminho 23" d="M14.789,264.234c-.994-2.222-2.2-4.832-3.032-6.581l-2.15-4.54c1.7-.63,4.863-2.014,7.866-3.436l1.134-.537c3.073-1.457,6.125-3.018,7.713-3.944l1.42,3.119.84,1.774c1.074,2.269,2.309,4.752,2.938,5.959l-2.98.978a7.166,7.166,0,0,1-.679-1.126,26.062,26.062,0,0,0-1.663-4.365c-.223-.473-.494-.981-.73-1.478-1.345.58-2.881,1.249-4.441,1.988,1.167,2.343,2.179,4.294,2.676,5.1l-2.995,1.071c-.33-.943-1.144-2.844-2.14-5.007-1.679.8-3.311,1.627-4.683,2.336.279.649.569,1.322.86,1.937a32.808,32.808,0,0,0,2.525,4.535,11.018,11.018,0,0,1,.476,1.251Z" transform="translate(-3.941 -100.583)" fill="#fff"/>
      <path id="Caminho_24" data-name="Caminho 24" d="M27.832,286.288a11.412,11.412,0,0,1-2.069-6.035l3.651-.955a9.176,9.176,0,0,0,1.231,5.668c.878,1.238,2.011,1.524,3.078.767.9-.636,1.074-1.469.724-3.047l-.648-2.811c-.653-2.775-.058-4.737,1.863-6.1a4.872,4.872,0,0,1,4.733-.7,12.756,12.756,0,0,1,3.707,2.47,13.015,13.015,0,0,1,2.172,5.321l-3.506.98a7.236,7.236,0,0,1-.62-.875l-.562-3.867-.106-.149c-.862-1.216-1.943-1.475-2.99-.733-.853.6-1.038,1.474-.67,3.17l.648,2.81c.644,2.718.024,4.6-1.9,5.964a4.87,4.87,0,0,1-4.74.732,16.21,16.21,0,0,1-4-2.613" transform="translate(-10.568 -111.886)" fill="#fff"/>
      <path id="Caminho_25" data-name="Caminho 25" d="M49.014,306.291c1.381-1.175,3.883-3.556,6.218-5.918l.883-.894c1.453-1.469,2.887-2.957,4.027-4.222a33.056,33.056,0,0,0-3.365-2.811,7.1,7.1,0,0,1-.856-.993l2.281-2.159c.838.9,2.847,2.961,4.82,4.911l.987.975c2.045,2.023,4.055,3.934,4.965,4.761l-2.43,2.012a7.1,7.1,0,0,1-1.022-.827A23.339,23.339,0,0,0,62.913,298c-1.269,1.173-2.741,2.624-4.157,4.057l-.883.894c-2.39,2.419-4.726,4.929-5.864,6.3Z" transform="translate(-20.106 -118.673)" fill="#fff"/>
      <path id="Caminho_26" data-name="Caminho 26" d="M70.838,324.9c-1.6,1.248-2.692,2.143-3.149,2.527l-2.944-2.04c.038-.1.9-1.347.982-1.419,3.542-2.127,9.589-6.079,15.094-9.8l3,1.954c-1.631,6.535-3.252,13.556-4,17.617-.039.1-.9,1.348-.983,1.42l-3.138-2.175c.2-.562.623-1.955,1.208-3.9-.615-.49-1.2-.892-2.1-1.517-1.87-1.294-3.024-2.064-3.979-2.661m6.9,1.343c.71-2.4,1.531-5.332,2.43-8.558-2.654,2.042-5.029,3.862-7.023,5.408.43.3.882.612,1.376.953,1.268.879,2.342,1.623,3.217,2.2" transform="translate(-26.56 -128.876)" fill="#fff"/>
      <path id="Caminho_27" data-name="Caminho 27" d="M102.976,346.861a11.429,11.429,0,0,1-4.844-4.153l2.663-2.676a9.19,9.19,0,0,0,3.935,4.262c1.384.621,2.506.294,3.042-.9.451-1,.183-1.81-.921-2.994l-1.983-2.094c-1.97-2.059-2.452-4.054-1.487-6.2a4.868,4.868,0,0,1,3.726-3,12.8,12.8,0,0,1,4.448.247,13.018,13.018,0,0,1,4.571,3.486l-2.524,2.621a7.175,7.175,0,0,1-.979-.439l-2.445-3.047c-.072-.033-.12-.054-.168-.074-1.36-.612-2.424-.285-2.948.883-.429.955-.147,1.8,1.029,3.071l1.984,2.1c1.933,2.014,2.354,3.952,1.39,6.1a4.863,4.863,0,0,1-3.714,3.034,16.231,16.231,0,0,1-4.774-.221" transform="translate(-40.255 -134.962)" fill="#fff"/>
      <path id="Caminho_28" data-name="Caminho 28" d="M149.041,360.231c-4.034-.6-6.427-3-5.977-6,.31-2.07,1.9-3.471,4.642-4.144-1.348-1.948-1.713-3.219-1.509-4.59a4.526,4.526,0,0,1,2.613-3.5,9.932,9.932,0,0,1,3.82-.962c3.233.484,5.08,2.638,4.665,5.4-.333,2.225-2.045,3.768-4.935,4.525.245.3.487.629.781.964.789.911,1.644,1.911,2.525,2.916a22.69,22.69,0,0,0,2.754-4.269l2.794.419a14.631,14.631,0,0,1-.221,1.475,50.126,50.126,0,0,1-3.7,4.232c.973,1.1,1.9,2.136,2.746,3.029.01.107-.195,1.479-.236,1.577l-3.3-.415c-.536-.661-1.116-1.383-1.743-2.139a6.838,6.838,0,0,1-.831.432,16.19,16.19,0,0,1-4.89,1.039m4.243-3.252c-1.053-1.27-2.127-2.567-3.072-3.687-.447-.541-.877-1.03-1.229-1.506a2.986,2.986,0,0,0-2.216,2.445c-.272,1.81.9,3.177,3.02,3.494a5.189,5.189,0,0,0,3.5-.745m-2.215-7.631a3.434,3.434,0,0,0,2.722-2.818c.236-1.578-.488-2.745-1.859-2.951-1.19-.177-1.982.523-2.192,1.92-.171,1.138.1,2.132,1.328,3.849" transform="translate(-58.665 -139.897)" fill="#fff"/>
      <path id="Caminho_29" data-name="Caminho 29" d="M209.831,359.539c-2.418.264-5.274.612-7.194.863l-4.98.653c-.078-1.81-.422-5.246-.855-8.541l-.162-1.244c-.443-3.371-.991-6.755-1.384-8.55l3.4-.393,1.945-.255c2.489-.327,5.233-.739,6.574-.967l.015,3.137a7.19,7.19,0,0,1-1.28.3,25.935,25.935,0,0,0-4.663.242c-.519.068-1.086.168-1.631.239.139,1.459.3,3.126.528,4.837,2.587-.391,4.755-.755,5.675-.98l.1,3.179c-1,.025-3.057.215-5.421.5.241,1.841.531,3.65.784,5.174.7-.065,1.433-.136,2.107-.224a32.738,32.738,0,0,0,5.09-1.01,10.63,10.63,0,0,1,1.336-.069Z" transform="translate(-80.097 -139.927)" fill="#fff"/>
      <path id="Caminho_30" data-name="Caminho 30" d="M232.264,352.361c-4.233-5.23-8.813-10.759-11.595-13.8-.058-.091-.54-1.529-.548-1.638l3.671-1.227c.787,1.2,4.407,6.165,9.293,12.61-.124-8.039-.321-14.15-.439-15.572l3.448-1.154c.058.09.54,1.53.548,1.637-.393,4.1-.8,11.3-1.063,17.925Z" transform="translate(-90.298 -136.02)" fill="#fff"/>
      <path id="Caminho_31" data-name="Caminho 31" d="M272.089,335.161c-2.156,1.126-4.689,2.492-6.386,3.424l-4.4,2.422c-.732-1.657-2.306-4.732-3.907-7.642l-.606-1.1c-1.64-2.978-3.383-5.93-4.4-7.459l3.027-1.606,1.719-.945c2.2-1.211,4.6-2.594,5.769-3.3l1.157,2.916a7.125,7.125,0,0,1-1.082.745,26.125,26.125,0,0,0-4.256,1.924c-.458.252-.95.553-1.432.817.662,1.308,1.423,2.8,2.255,4.312,2.266-1.306,4.153-2.435,4.927-2.981l1.252,2.925c-.921.387-2.77,1.316-4.868,2.441.9,1.626,1.825,3.2,2.615,4.532.631-.318,1.285-.648,1.882-.976a32.915,32.915,0,0,0,4.373-2.795,11.119,11.119,0,0,1,1.218-.551Z" transform="translate(-103.533 -130.842)" fill="#fff"/>
      <path id="Caminho_32" data-name="Caminho 32" d="M296.894,315.011c-1.092-.481-6.34-2.3-14.692-5.165l3.11,3.669c2.181,2.574,4.492,5.138,5.76,6.394l-2.731,2.316c-1.048-1.479-3.2-4.179-5.346-6.712l-.811-.957c-2.2-2.593-4.492-5.138-5.76-6.393l3.45-2.924c1.412.655,6.729,2.521,14.773,5.3l-3.228-3.81c-2.2-2.592-4.491-5.137-5.76-6.393l2.732-2.316c1.047,1.478,3.2,4.179,5.345,6.711l.812.957c2.18,2.573,4.492,5.139,5.76,6.393Z" transform="translate(-113.394 -122.253)" fill="#fff"/>
      <path id="Caminho_33" data-name="Caminho 33" d="M318.379,292.706c-1.32-1.24-3.966-3.461-6.575-5.519l-.985-.776c-1.624-1.279-3.262-2.538-4.646-3.53a33.094,33.094,0,0,0-2.417,3.658,7.091,7.091,0,0,1-.891.962l-2.4-2.025c.8-.934,2.625-3.159,4.341-5.338l.858-1.088c1.782-2.259,3.457-4.469,4.177-5.467l2.27,2.19a7.258,7.258,0,0,1-.707,1.107,23.374,23.374,0,0,0-2.818,2.941c1.306,1.13,2.913,2.43,4.494,3.677l.986.777c2.67,2.106,5.426,4.145,6.919,5.123Z" transform="translate(-123.255 -112.228)" fill="#fff"/>
      <path id="Caminho_34" data-name="Caminho 34" d="M341.252,262.754c-2.521,4.939-7.633,6.5-12.758,3.88a8.659,8.659,0,0,1-5.1-6.92,17.206,17.206,0,0,1,.553-5.913c2.522-4.938,7.635-6.5,12.782-3.868a8.648,8.648,0,0,1,5.076,6.909,17.151,17.151,0,0,1-.554,5.912m-2.465-1.669c1.369-2.678.129-5.426-3.434-7.245-3.867-1.975-7.427-1.327-8.939,1.631-1.368,2.678-.129,5.426,3.435,7.246,3.867,1.975,7.427,1.326,8.938-1.632" transform="translate(-132.634 -102.008)" fill="#fff"/>
      <path id="Caminho_35" data-name="Caminho 35" d="M354.414,230.2a11.432,11.432,0,0,1-3.392,5.4l-3.039-2.238a9.184,9.184,0,0,0,3.632-4.522c.41-1.46-.08-2.521-1.338-2.875-1.058-.3-1.818.089-2.824,1.354l-1.779,2.271c-1.746,2.254-3.647,3.022-5.913,2.387a4.87,4.87,0,0,1-3.517-3.242,12.791,12.791,0,0,1-.412-4.435,13.017,13.017,0,0,1,2.772-5.034l2.967,2.109a7.312,7.312,0,0,1-.291,1.032l-2.652,2.869c-.022.075-.035.125-.05.176-.4,1.434.075,2.438,1.309,2.784,1.008.283,1.8-.12,2.885-1.471l1.778-2.27c1.707-2.211,3.561-2.914,5.828-2.275a4.86,4.86,0,0,1,3.55,3.223,16.234,16.234,0,0,1,.485,4.754" transform="translate(-137.744 -89.947)" fill="#fff"/>
    </g>
  </g>
</svg>
