<svg xmlns="http://www.w3.org/2000/svg" xmlns:xlink="http://www.w3.org/1999/xlink" width="375.213" height="124.368" viewBox="0 0 375.213 124.368">
  <defs>
    <clipPath id="clip-path">
      <rect id="Retângulo_10" data-name="Retângulo 10" width="375.213" height="124.368" fill="#eae4c7"/>
    </clipPath>
  </defs>
  <g id="Grupo_18" data-name="Grupo 18" transform="translate(0)">
    <path id="Caminho_36" data-name="Caminho 36" d="M40.824,76.155,28.015,108.691,14.8,76.155H4.384L0,125.13H2.877L6.37,86.635l15.412,37.742H25.07L40.139,85.4h.069l3.631,39.728H55.551L51.1,76.155Z" transform="translate(0 -40.41)" fill="#eae4c7"/>
    <g id="Grupo_17" data-name="Grupo 17" transform="translate(0)">
      <g id="Grupo_16" data-name="Grupo 16" clip-path="url(#clip-path)">
        <path id="Caminho_37" data-name="Caminho 37" d="M131.628,99.6c0-15.754,9.864-25.344,24.8-25.344s24.865,9.59,24.865,25.344-9.932,25.412-24.865,25.412-24.8-9.658-24.8-25.412m37.331,5.274c0-9.932-3.7-28.426-13.973-28.426-6.849,0-11.1,6.918-11.1,17.878,0,10,3.836,28.495,14.042,28.495,6.507,0,11.028-6.507,11.028-17.946" transform="translate(-69.846 -39.404)" fill="#eae4c7"/>
        <path id="Caminho_38" data-name="Caminho 38" d="M249.976,100.081c0-15.686,9.178-25.824,23.357-25.824,9.316,0,16.85,4.8,20.412,12.946l-9.795,3.9H283.4c-.959-9.384-4.521-14.8-9.658-14.8-6.85,0-11.1,8.631-11.1,22.741,0,14.727,4.726,23.837,12.056,23.837,5.479,0,8.973-5.343,9.726-14.658l10.686,2.6c-3.151,8.973-11.165,14.179-21.508,14.179-14.59,0-23.632-9.59-23.632-24.933" transform="translate(-132.646 -39.403)" fill="#eae4c7"/>
        <path id="Caminho_39" data-name="Caminho 39" d="M370.69,82.382l-2.26-4.521a25.319,25.319,0,0,0,10.48-4.041l18.974,50.071h-12.4L380,108.274H364.045l-1.164,3.356a108.069,108.069,0,0,0-3.219,12.261h-4.178Zm8.151,22.6-6.918-19.453-6.713,19.453Z" transform="translate(-188.632 -39.171)" fill="#eae4c7"/>
        <path id="Caminho_40" data-name="Caminho 40" d="M465.666,76.155h10.411l13.22,32.536,12.809-32.536H512.38l4.453,48.975H505.12L501.489,85.4h-.069l-15.069,38.975h-3.288L467.652,86.635l-3.494,38.5h-2.877Z" transform="translate(-244.772 -40.41)" fill="#eae4c7"/>
        <path id="Caminho_41" data-name="Caminho 41" d="M598.018,76.154h19.453c10.411,0,16.576,4.384,16.576,10.686,0,5.411-4.589,9.247-12.329,10.549v.137c9.522,1.439,15.069,6.439,15.069,13.562,0,8.562-7.672,14.042-20.344,14.042H598.018Zm15.96,21.508c5.206,0,8.562-3.9,8.562-9.8,0-5.822-3.151-9.589-8.22-9.589h-4.658V97.662Zm1.3,25.275c6.1,0,9.178-3.767,9.178-11.439,0-8.151-3.493-12.124-9.727-11.782l-5.069.206v23.015Z" transform="translate(-317.329 -40.41)" fill="#eae4c7"/>
        <path id="Caminho_42" data-name="Caminho 42" d="M693.6,99.6c0-15.754,9.863-25.344,24.8-25.344s24.865,9.59,24.865,25.344-9.933,25.412-24.865,25.412-24.8-9.658-24.8-25.412m37.331,5.274c0-9.932-3.7-28.426-13.974-28.426-6.85,0-11.1,6.918-11.1,17.878,0,10,3.836,28.495,14.042,28.495,6.507,0,11.028-6.507,11.028-17.946" transform="translate(-368.049 -39.404)" fill="#eae4c7"/>
        <path id="Caminho_43" data-name="Caminho 43" d="M313.286,16.922c-2.109-.046-4.6-.068-6.283-.068h-3.969c.136-1.565.227-4.559.227-7.44V8.326c0-2.949-.091-5.92-.227-7.508,1.656.023,2.949.046,4.423.046,2.086,0,4.491-.046,5.58-.091l-.3,2.382a4.349,4.349,0,0,1-.952.091,23.631,23.631,0,0,0-4.174-.317c-.545,0-1.111.023-1.656.045-.068,1.361-.114,3.017-.114,4.673,2.359-.023,4.332-.113,5.172-.2l-.249,2.427c-.907-.091-2.767-.159-4.922-.2,0,1.815.046,3.629.091,5.081.68.023,1.406.046,2.109.046a28.754,28.754,0,0,0,4.582-.3,6.312,6.312,0,0,1,.952.068Z" transform="translate(-160.8 -0.41)" fill="#eae4c7"/>
        <path id="Caminho_44" data-name="Caminho 44" d="M338.153,16.9a8.929,8.929,0,0,1-5.013-1.542l1.021-2.631a7.177,7.177,0,0,0,4.513,1.928c1.52,0,2.427-.771,2.427-2.109,0-1.089-.567-1.747-2.019-2.382l-2.314-.975c-2.2-.953-3.243-2.291-3.243-4.287a4.137,4.137,0,0,1,1.724-3.539A10.737,10.737,0,0,1,338.742,0a10.289,10.289,0,0,1,4.582,1.134l-.93,2.563a3.591,3.591,0,0,1-.7,0l-3.108-1.542H338.4c-1.5,0-2.336.749-2.336,2.064,0,1.043.59,1.724,2.132,2.382l2.291,1c2.154.907,3.152,2.268,3.152,4.264a4.082,4.082,0,0,1-1.723,3.539,12.845,12.845,0,0,1-3.765,1.5" transform="translate(-176.776)" fill="#eae4c7"/>
        <path id="Caminho_45" data-name="Caminho 45" d="M370.967,11.883c-.544,0-1.27-.046-2.155-.114.046,2,.114,3.765.2,4.854H366c.136-1.565.227-4.559.227-7.439V8.1c0-2.949-.091-5.92-.227-7.462h.249c1.5,0,5.263-.3,5.489-.3a5.084,5.084,0,0,1,5.353,5.4,5.232,5.232,0,0,1-2.427,4.65,11.611,11.611,0,0,1-3.7,1.5M374.324,6.1c0-2.291-1.248-3.675-3.357-3.675-.431,0-1.248.046-2.087.114-.046,1.5-.091,3.447-.091,5.534V9.661c.817.046,1.611.091,2.087.091,2.177,0,3.448-1.361,3.448-3.652" transform="translate(-194.212 -0.179)" fill="#eae4c7"/>
        <path id="Caminho_46" data-name="Caminho 46" d="M397.407,13.231c-.613,1.86-1.021,3.153-1.157,3.675h-2.676a10.276,10.276,0,0,1,0-1.18c1.338-2.857,3.72-8.8,6.033-14.766L402.17.87c2.291,6.056,4.65,12,5.966,14.856a10.3,10.3,0,0,1,0,1.18H405.3c-.136-.521-.567-1.815-1.225-3.7-.658-.046-1.27-.046-2.2-.046-2.2,0-3.47.023-4.468.068M403.35,11.1c-.726-2.155-1.656-4.741-2.7-7.644-.975,2.9-1.86,5.534-2.563,7.666.454.023.953.023,1.542.023,1.588,0,2.79-.023,3.72-.046" transform="translate(-208.835 -0.462)" fill="#eae4c7"/>
        <path id="Caminho_47" data-name="Caminho 47" d="M436.41,23.226l-.5-1.316c1.838-.476,2.767-1.111,2.767-1.973a.745.745,0,0,0-.816-.794,2.033,2.033,0,0,0-.816.182,3.74,3.74,0,0,1-.636-.817l.681-1.724c-3.833-.59-6.192-3.562-6.192-7.825a8.392,8.392,0,0,1,3.425-7.213A14.878,14.878,0,0,1,438.859,0a10.859,10.859,0,0,1,4.718,1.2l-.907,2.45a3.666,3.666,0,0,1-.7,0L438.95,2.245a2.043,2.043,0,0,0-.385-.023c-2.949,0-4.831,2.268-4.831,6.079,0,3.924,2,6.192,5.4,6.192a8.472,8.472,0,0,0,4.106-1.111l.7,1.883a10.55,10.55,0,0,1-5.194,1.61l-.635.975a4.105,4.105,0,0,1,.726-.068c1.2,0,2.019.613,2.019,1.678,0,1.61-1.77,3.13-4.446,3.765" transform="translate(-228.649)" fill="#eae4c7"/>
        <path id="Caminho_48" data-name="Caminho 48" d="M473.053,16.9c-4.718,0-7.893-3.334-7.893-8.324a7.567,7.567,0,0,1,3.289-6.691A15.018,15.018,0,0,1,473.144,0c4.718,0,7.893,3.334,7.893,8.347a7.519,7.519,0,0,1-3.311,6.668,14.763,14.763,0,0,1-4.673,1.883m.318-2.223c2.881,0,4.741-2.177,4.741-5.875,0-3.946-2.11-6.578-5.285-6.578-2.881,0-4.741,2.177-4.741,5.875,0,3.947,2.109,6.578,5.285,6.578" transform="translate(-246.83 0.001)" fill="#eae4c7"/>
        <path id="Caminho_49" data-name="Caminho 49" d="M153.617,245.823c.136-1.565.227-4.559.227-7.44V237.3c0-2.949-.091-5.92-.227-7.508,1.565.023,3.2.046,4.673.046,2.041,0,4.332-.046,5.444-.091l-.25,2.4a4.459,4.459,0,0,1-.952.068,19.846,19.846,0,0,0-3.72-.295c-.771,0-1.565.046-2.291.091-.046,1.474-.091,3.289-.091,5.081,2.4-.023,4.514-.114,5.467-.2l-.25,2.518c-.975-.091-3.017-.182-5.217-.2.023,2.676.114,5.239.227,6.623Z" transform="translate(-81.515 -121.909)" fill="#eae4c7"/>
        <path id="Caminho_50" data-name="Caminho 50" d="M194.506,245.892c-2.109-.046-4.6-.068-6.283-.068h-3.969c.136-1.565.227-4.559.227-7.439V237.3c0-2.949-.091-5.921-.227-7.508,1.656.023,2.949.046,4.423.046,2.086,0,4.491-.046,5.58-.091l-.3,2.381a4.35,4.35,0,0,1-.952.091,23.683,23.683,0,0,0-4.174-.317c-.544,0-1.111.022-1.656.045-.068,1.361-.114,3.017-.114,4.672,2.359-.022,4.332-.113,5.171-.2l-.249,2.427c-.907-.091-2.767-.159-4.922-.2,0,1.815.046,3.63.091,5.081.68.023,1.406.046,2.109.046a28.763,28.763,0,0,0,4.582-.295,6.249,6.249,0,0,1,.952.068Z" transform="translate(-97.772 -121.91)" fill="#eae4c7"/>
        <path id="Caminho_51" data-name="Caminho 51" d="M219.373,245.867a8.928,8.928,0,0,1-5.013-1.542l1.021-2.631a7.177,7.177,0,0,0,4.513,1.928c1.52,0,2.427-.772,2.427-2.109,0-1.089-.567-1.747-2.019-2.382l-2.313-.975c-2.2-.952-3.243-2.291-3.243-4.287a4.137,4.137,0,0,1,1.723-3.539,10.737,10.737,0,0,1,3.493-1.361,10.288,10.288,0,0,1,4.582,1.134l-.93,2.563a3.667,3.667,0,0,1-.7,0l-3.108-1.542h-.182c-1.5,0-2.336.749-2.336,2.064,0,1.043.59,1.724,2.132,2.382l2.291,1c2.154.907,3.152,2.268,3.152,4.264a4.082,4.082,0,0,1-1.724,3.539,12.846,12.846,0,0,1-3.765,1.5" transform="translate(-113.747 -121.499)" fill="#eae4c7"/>
        <path id="Caminho_52" data-name="Caminho 52" d="M248.322,245.823c.136-1.565.226-4.559.226-7.44V237.3c0-1.928-.045-3.879-.113-5.421a29.788,29.788,0,0,0-4.129.34,4.657,4.657,0,0,1-.952-.091l.091-2.382c1.066.046,3.561.091,5.943.091h.975c2.45,0,4.9-.046,5.943-.091l-.227,2.4a4.57,4.57,0,0,1-.953.068,23.171,23.171,0,0,0-3.878-.317c-.068,1.542-.114,3.493-.114,5.375v1.089c0,2.949.091,5.92.227,7.462Z" transform="translate(-129.132 -121.909)" fill="#eae4c7"/>
        <path id="Caminho_53" data-name="Caminho 53" d="M276.984,242.2c-.612,1.86-1.02,3.153-1.157,3.674h-2.677a10.317,10.317,0,0,1,0-1.179c1.338-2.857,3.72-8.8,6.033-14.766l2.563-.09c2.291,6.056,4.65,12,5.966,14.856a10.3,10.3,0,0,1,0,1.179h-2.835c-.136-.521-.567-1.815-1.225-3.7-.658-.046-1.27-.046-2.2-.046-2.2,0-3.47.023-4.468.069m5.943-2.132c-.726-2.155-1.656-4.741-2.7-7.644-.976,2.9-1.86,5.534-2.563,7.666.453.023.952.023,1.542.023,1.588,0,2.79-.023,3.72-.046" transform="translate(-144.934 -121.961)" fill="#eae4c7"/>
        <path id="Caminho_54" data-name="Caminho 54" d="M316.02,245.867a8.929,8.929,0,0,1-5.013-1.542l1.021-2.631a7.177,7.177,0,0,0,4.513,1.928c1.52,0,2.427-.772,2.427-2.109,0-1.089-.567-1.747-2.019-2.382l-2.313-.975c-2.2-.952-3.243-2.291-3.243-4.287a4.137,4.137,0,0,1,1.723-3.539,10.737,10.737,0,0,1,3.493-1.361,10.288,10.288,0,0,1,4.582,1.134l-.93,2.563a3.666,3.666,0,0,1-.7,0l-3.108-1.542h-.182c-1.5,0-2.336.749-2.336,2.064,0,1.043.59,1.724,2.132,2.382l2.291,1c2.154.907,3.153,2.268,3.153,4.264a4.083,4.083,0,0,1-1.724,3.539,12.85,12.85,0,0,1-3.765,1.5" transform="translate(-165.031 -121.499)" fill="#eae4c7"/>
        <path id="Caminho_55" data-name="Caminho 55" d="M362.585,245.842c-3.4,0-5.67-1.724-5.67-4.332,0-1.906,1.2-3.334,3.516-4.241-1.451-1.565-1.95-2.609-1.95-3.788a3.894,3.894,0,0,1,1.746-3.244,7.683,7.683,0,0,1,2.949-1.315c2.7,0,4.468,1.61,4.468,4.014,0,2-1.27,3.539-3.675,4.559.272.272.59.544.907.839.817.726,1.746,1.565,2.722,2.427a18.644,18.644,0,0,0,1.883-4.241h2.109a7.548,7.548,0,0,1,0,1.02,38.7,38.7,0,0,1-2.654,4.4c.953.839,1.906,1.656,2.767,2.382a8.413,8.413,0,0,1,0,1.066l-2.5.068c-.567-.521-1.18-1.111-1.86-1.724a5.13,5.13,0,0,1-.7.522,14.613,14.613,0,0,1-4.06,1.587m3.516-3.289c-1.088-1-2.222-2.019-3.22-2.926-.476-.431-.907-.816-1.293-1.2-1.406.635-2.064,1.474-2.064,2.654,0,1.655,1.338,2.767,3.38,2.767a4.649,4.649,0,0,0,3.2-1.293m-3.266-6.169c1.587-.7,2.313-1.633,2.313-2.949a2.238,2.238,0,0,0-2.268-2.473A1.808,1.808,0,0,0,361,233.027c0,1.043.409,1.882,1.838,3.357" transform="translate(-189.391 -121.473)" fill="#eae4c7"/>
        <path id="Caminho_56" data-name="Caminho 56" d="M423.9,245.892c-2.109-.046-4.6-.068-6.283-.068h-3.969c.136-1.565.227-4.559.227-7.439V237.3c0-2.949-.091-5.921-.227-7.508,1.656.023,2.949.046,4.423.046,2.087,0,4.491-.046,5.58-.091l-.295,2.381a4.353,4.353,0,0,1-.952.091,23.692,23.692,0,0,0-4.174-.317c-.544,0-1.111.022-1.656.045-.068,1.361-.114,3.017-.114,4.672,2.359-.022,4.332-.113,5.171-.2l-.249,2.427c-.908-.091-2.767-.159-4.922-.2,0,1.815.046,3.63.091,5.081.68.023,1.406.046,2.109.046a28.767,28.767,0,0,0,4.582-.295,6.254,6.254,0,0,1,.952.068Z" transform="translate(-219.495 -121.91)" fill="#eae4c7"/>
        <path id="Caminho_57" data-name="Caminho 57" d="M448.548,245.972c-2.245-6.056-4.536-12-5.829-14.856a10.277,10.277,0,0,1,0-1.18h2.835c.318,1.18,2.086,6.419,4.491,13.314,2.268-6.895,3.947-12.134,4.242-13.314h2.7a10.532,10.532,0,0,1,0,1.18c-1.316,2.858-3.652,8.8-5.9,14.766Z" transform="translate(-234.913 -122.012)" fill="#eae4c7"/>
        <path id="Caminho_58" data-name="Caminho 58" d="M492.567,245.892c-2.109-.046-4.6-.068-6.283-.068h-3.969c.136-1.565.227-4.559.227-7.439V237.3c0-2.949-.091-5.921-.227-7.508,1.656.023,2.949.046,4.423.046,2.087,0,4.491-.046,5.58-.091l-.295,2.381a4.353,4.353,0,0,1-.952.091,23.692,23.692,0,0,0-4.174-.317c-.544,0-1.111.022-1.656.045-.068,1.361-.114,3.017-.114,4.672,2.359-.022,4.332-.113,5.171-.2l-.249,2.427c-.908-.091-2.767-.159-4.922-.2,0,1.815.046,3.63.091,5.081.68.023,1.406.046,2.109.046a28.768,28.768,0,0,0,4.582-.295,6.253,6.253,0,0,1,.952.068Z" transform="translate(-255.933 -121.91)" fill="#eae4c7"/>
        <path id="Caminho_59" data-name="Caminho 59" d="M524.232,245.949c-.408-.929-2.926-5.194-7.235-12.5v5.013c0,2.926.091,5.92.227,7.462h-2.676c.136-1.565.227-4.559.227-7.439V237.4c0-2.949-.09-5.92-.227-7.462h3.4c.59,1.293,3.108,5.647,7.191,12.565v-5.1c0-2.949-.091-5.92-.227-7.462h2.676c-.136,1.565-.227,4.559-.227,7.439v1.089c0,2.926.091,5.92.227,7.462Z" transform="translate(-273.036 -122.012)" fill="#eae4c7"/>
        <path id="Caminho_60" data-name="Caminho 60" d="M556.192,245.823c.136-1.565.227-4.559.227-7.44V237.3c0-1.928-.045-3.879-.114-5.421a29.788,29.788,0,0,0-4.128.34,4.656,4.656,0,0,1-.952-.091l.091-2.382c1.066.046,3.561.091,5.943.091h.975c2.45,0,4.9-.046,5.943-.091l-.227,2.4a4.57,4.57,0,0,1-.953.068,23.172,23.172,0,0,0-3.879-.317c-.068,1.542-.113,3.493-.113,5.375v1.089c0,2.949.091,5.92.227,7.462Z" transform="translate(-292.499 -121.909)" fill="#eae4c7"/>
        <path id="Caminho_61" data-name="Caminho 61" d="M591.736,245.867c-4.718,0-7.893-3.334-7.893-8.324a7.567,7.567,0,0,1,3.289-6.691,15.017,15.017,0,0,1,4.7-1.883c4.718,0,7.893,3.334,7.893,8.347a7.519,7.519,0,0,1-3.311,6.668,14.764,14.764,0,0,1-4.673,1.883m.318-2.223c2.881,0,4.741-2.177,4.741-5.875,0-3.947-2.11-6.578-5.285-6.578-2.881,0-4.741,2.177-4.741,5.875,0,3.947,2.109,6.578,5.285,6.578" transform="translate(-309.807 -121.499)" fill="#eae4c7"/>
        <path id="Caminho_62" data-name="Caminho 62" d="M630.946,245.867a8.93,8.93,0,0,1-5.013-1.542l1.021-2.631a7.179,7.179,0,0,0,4.514,1.928c1.52,0,2.427-.772,2.427-2.109,0-1.089-.567-1.747-2.019-2.382l-2.313-.975c-2.2-.952-3.243-2.291-3.243-4.287a4.137,4.137,0,0,1,1.723-3.539,10.738,10.738,0,0,1,3.494-1.361,10.29,10.29,0,0,1,4.582,1.134l-.93,2.563a3.667,3.667,0,0,1-.7,0l-3.107-1.542H631.2c-1.5,0-2.336.749-2.336,2.064,0,1.043.59,1.724,2.132,2.382l2.291,1c2.154.907,3.153,2.268,3.153,4.264a4.083,4.083,0,0,1-1.724,3.539,12.836,12.836,0,0,1-3.765,1.5" transform="translate(-332.142 -121.499)" fill="#eae4c7"/>
      </g>
    </g>
  </g>
</svg>
