<svg xmlns="http://www.w3.org/2000/svg" width="77.632" height="77.962" viewBox="0 0 77.632 77.962">
  <g id="icons8-whatsapp_7_" data-name="icons8-whatsapp (7)" transform="translate(-3.868 -4)">
    <path id="Caminho_63" data-name="Caminho 63" d="M4.868,79.091l5.211-19.024A36.728,36.728,0,1,1,41.9,78.455h-.015a36.685,36.685,0,0,1-17.55-4.47Z" transform="translate(0.935 0.934)" fill="#fff"/>
    <path id="Caminho_64" data-name="Caminho 64" d="M5.335,80.526A.966.966,0,0,1,4.4,79.3l5.1-18.639A37.689,37.689,0,1,1,24.682,75.485L5.58,80.493A.885.885,0,0,1,5.335,80.526Z" transform="translate(0.468 0.467)" fill="#fff"/>
    <path id="Caminho_65" data-name="Caminho 65" d="M42.838,5.934a36.727,36.727,0,0,1,0,73.455h-.015a36.685,36.685,0,0,1-17.55-4.47L5.8,80.026,11.014,61A36.732,36.732,0,0,1,42.838,5.934m0,73.455h0m0,0h0M42.838,4h0a38.671,38.671,0,0,0-33.9,57.259l-5,18.258A1.934,1.934,0,0,0,6.294,81.9l18.738-4.913A38.664,38.664,0,1,0,42.838,4Z" transform="translate(0)" fill="#cfd8dc"/>
    <path id="Caminho_66" data-name="Caminho 66" d="M60.351,17.154A30.528,30.528,0,0,0,12.9,54.959l.727,1.155-3.085,11.26L22.1,64.345l1.116.662A30.466,30.466,0,0,0,38.748,69.26h.012A30.528,30.528,0,0,0,60.351,17.154Z" transform="translate(4.078 3.93)" fill="#40c351"/>
    <path id="Caminho_67" data-name="Caminho 67" d="M23.849,16.821c-.687-1.528-1.41-1.559-2.066-1.586-.536-.023-1.147-.021-1.758-.021a3.373,3.373,0,0,0-2.447,1.149,10.285,10.285,0,0,0-3.213,7.652c0,4.515,3.288,8.879,3.747,9.49S24.46,43.678,33.788,47.357c7.751,3.056,9.329,2.449,11.012,2.3s5.43-2.219,6.194-4.362a7.685,7.685,0,0,0,.536-4.362c-.23-.383-.841-.611-1.758-1.072s-5.43-2.679-6.271-2.985-1.453-.458-2.066.46-2.37,2.985-2.905,3.6-1.072.691-1.989.23a25.119,25.119,0,0,1-7.38-4.553,27.648,27.648,0,0,1-5.1-6.354c-.536-.917-.058-1.414.4-1.872.412-.412.917-1.072,1.377-1.607a6.276,6.276,0,0,0,.917-1.53,1.688,1.688,0,0,0-.077-1.607C26.449,23.174,24.665,18.636,23.849,16.821Z" transform="translate(9.808 10.478)" fill="#fff" fill-rule="evenodd"/>
  </g>
</svg>
